# xmcd
#
# Track frame offsets: 
#        150
#        10429
#        32572
#        51428
#        73139
#        95914
#        131528
#        151633
#        168871
#        180361
#        219447
#        247510
#        267577
#        300327
#        318413
#        336747
#
# Disc length: 4774 seconds
#
# Revision: 0
# Processed by: cddbd v1.5.2PL0 Copyright (c) Steve Scherf et al.
# Submitted via: ExactAudioCopy v1.3
#
DISCID=da12a410
DTITLE=Paul Lamb and The King Snakes - Harmonica Man [disk 1]
DYEAR=2003
DGENRE=Harmonica Blues, Electric Blues
TTITLE0=Whoopin' (A Tribute To Sonny Terry) - Blues Burglars
TTITLE1=Sugar Mama - Blues Burglars
TTITLE2=Firing Line - Blues Burglars
TTITLE3=Madison Blues
TTITLE4=My Woman Has A Black Cat Bone
TTITLE5=Bloody Murder
TTITLE6=Hey Woman
TTITLE7=Evening Sun
TTITLE8=Snakeskin Jump
TTITLE9=Once Too Often
TTITLE10=Texas Boogie [Live]
TTITLE11=Why Do You Treat Me So [Live]
TTITLE12=Don't Lose Your Cool [Live]
TTITLE13=Girl For Me
TTITLE14=Just A Dream
TTITLE15=Whoop And Holler
EXTD=
EXTT0=
EXTT1=
EXTT2=
EXTT3=
EXTT4=
EXTT5=
EXTT6=
EXTT7=
EXTT8=
EXTT9=
EXTT10=
EXTT11=
EXTT12=
EXTT13=
EXTT14=
EXTT15=
PLAYORDER=
